<?xml version="1.0" encoding="utf-8"?>
<!-- Generator: Adobe Illustrator 16.0.0, SVG Export Plug-In . SVG Version: 6.00 Build 0)  -->
<!DOCTYPE svg PUBLIC "-//W3C//DTD SVG 1.1//EN" "http://www.w3.org/Graphics/SVG/1.1/DTD/svg11.dtd">
<svg version="1.1" id="Layer_1" xmlns="http://www.w3.org/2000/svg" xmlns:xlink="http://www.w3.org/1999/xlink" x="0px" y="0px"
	 width="560.572px" height="261.655px" viewBox="0 0 560.572 261.655" enable-background="new 0 0 560.572 261.655"
	 xml:space="preserve">
<g>
	<path d="M212.694,0.299V169.11c0,29.374-9.763,52.143-29.285,68.303c-19.525,16.163-45.095,24.242-76.708,24.242
		c-31.97,0-57.747-8.079-77.327-24.242C9.791,221.252,0,198.484,0,169.11V0.299h59.986V169.11c0,15.81,4.07,27.516,12.209,35.125
		c8.14,7.608,19.642,11.413,34.505,11.413c14.745,0,26.1-3.774,34.063-11.325c7.963-7.548,11.944-19.287,11.944-35.213V0.299
		H212.694z"/>
	<path d="M346.469,87.182l42.468-86.882h69.011L384.16,128.057l82.08,133.598h-72.549l-46.514-92.368l-46.226,92.368h-69.011
		l78.076-133.598L236.229,0.299h68.479L346.469,87.182z"/>
</g>
<g>
	<path d="M559.482,261.655h-75.595v-27.754c0-9.039,2.899-16.603,8.697-22.688c5.798-6.084,13.23-9.127,22.299-9.127h13.603
		c9.104,0,16.546,3.043,22.325,9.127c5.781,6.086,8.671,13.649,8.671,22.688V261.655z M497.386,243.768h48.597v-8.653
		c0-4.749-1.601-8.46-4.803-11.133c-3.201-2.673-7.433-4.01-12.694-4.01H514.78c-5.227,0-9.432,1.337-12.616,4.01
		s-4.777,6.384-4.777,11.133V243.768z"/>
	<path d="M528.486,127.53c9.312,0,16.987,3,23.026,8.997c6.041,5.998,9.06,13.833,9.06,23.506c0,9.743-3.019,17.641-9.06,23.69
		c-6.039,6.051-13.715,9.076-23.026,9.076h-13.603c-9.275,0-16.942-3.017-23-9.05c-6.057-6.032-9.086-13.903-9.086-23.612
		c0-9.637,3.029-17.481,9.086-23.532c6.058-6.049,13.725-9.075,23-9.075H528.486z M514.78,145.312c-5.399,0-9.83,1.292-13.292,3.878
		c-3.46,2.585-5.191,6.235-5.191,10.948c0,4.82,1.723,8.505,5.166,11.054c3.444,2.552,7.884,3.826,13.317,3.826h13.706
		c5.47,0,9.935-1.293,13.396-3.878c3.462-2.586,5.192-6.287,5.192-11.106c0-4.679-1.73-8.302-5.192-10.87
		c-3.461-2.567-7.926-3.852-13.396-3.852H514.78z"/>
	<path d="M497.386,65.005v20.261h62.096v17.887h-62.096v20.103h-13.499v-58.25H497.386z"/>
	<path d="M539.441,17.834c-2.665,0-4.725,0.897-6.178,2.691c-1.454,1.794-2.994,5.012-4.621,9.655
		c-3.012,9.708-6.238,16.903-9.683,21.581c-3.444,4.679-8.42,7.018-14.927,7.018c-6.335,0-11.457-2.788-15.368-8.363
		c-3.911-5.575-5.867-12.654-5.867-21.237c0-8.512,2.154-15.486,6.464-20.92s9.856-8.064,16.64-7.888l0.312,0.105v17.307
		c-3.011,0-5.459,1.038-7.346,3.113c-1.887,2.076-2.83,4.942-2.83,8.601c0,3.587,0.779,6.402,2.337,8.442
		c1.557,2.041,3.479,3.061,5.763,3.061c2.216,0,3.989-1.029,5.321-3.086c1.333-2.058,3.004-5.918,5.011-11.582
		c2.562-8.723,5.711-15.292,9.449-19.707C527.656,2.208,532.795,0,539.337,0c6.646,0,11.847,2.63,15.602,7.889
		c3.756,5.259,5.633,12.233,5.633,20.92c0,8.724-2.154,16.27-6.464,22.635c-4.309,6.367-10.514,9.463-18.612,9.287l-0.312-0.106
		V43.266c4.361,0,7.476-1.195,9.345-3.588c1.869-2.392,2.804-6.015,2.804-10.869c0-3.694-0.727-6.445-2.181-8.257
		C543.699,18.74,541.795,17.834,539.441,17.834z"/>
</g>
</svg>
